<?xml version="1.0" encoding="UTF-8"?>
<svg id="Layer_1" data-name="Layer 1" xmlns="http://www.w3.org/2000/svg" viewBox="0 0 1080 1080">
  <defs>
    <style>
      .cls-1 {
        fill: #2c59e6;
      }

      .cls-2 {
        fill: #f6c445;
      }
    </style>
  </defs>
  <g>
    <path class="cls-1" d="M141.67,596.86v-99.78c0-.83,.67-1.5,1.5-1.5h21.73c.45,0,.87,.2,1.16,.54l54.19,65.42c.81,.98,.11,2.46-1.16,2.46h-6.62c-.83,0-1.5-.67-1.5-1.5v-65.42c0-.83,.67-1.5,1.5-1.5h25.48c.83,0,1.5,.67,1.5,1.5v99.78c0,.83-.67,1.5-1.5,1.5h-21.73c-.45,0-.87-.2-1.16-.54l-54.19-65.42c-.81-.98-.11-2.46,1.16-2.46h6.61c.83,0,1.5,.67,1.5,1.5v65.42c0,.83-.67,1.5-1.5,1.5h-25.48c-.83,0-1.5-.67-1.5-1.5Z"/>
    <path class="cls-1" d="M299.66,599.68c-9.4,0-17.6-1.79-24.59-5.36-7-3.57-12.43-8.46-16.3-14.68-3.87-6.21-5.8-13.29-5.8-21.22s1.88-15,5.65-21.22c3.77-6.21,8.98-11.06,15.64-14.54,6.66-3.47,14.14-5.21,22.46-5.21,7.83,0,14.98,1.59,21.44,4.77,6.46,3.18,11.6,7.85,15.42,14.02,3.82,6.17,5.73,13.65,5.73,22.46,0,.98-.05,2.11-.15,3.38-.06,.75-.12,1.47-.17,2.15-.07,.78-.71,1.37-1.49,1.37h-60.11c-.83,0-1.5-.67-1.5-1.5v-11.68c0-.83,.67-1.5,1.5-1.5h38.66c1.66,0,2.09,2.3,.54,2.9l-1.12,.43c-.96,.37-1.98-.31-2.04-1.33-.17-2.74-.81-5.17-1.95-7.28-1.42-2.64-3.38-4.7-5.87-6.17-2.5-1.47-5.41-2.2-8.74-2.2s-6.24,.73-8.74,2.2c-2.5,1.47-4.43,3.55-5.8,6.24-1.37,2.69-2.05,5.85-2.05,9.47v4.26c0,3.92,.81,7.29,2.42,10.13,1.62,2.84,3.94,5.02,6.97,6.53,3.03,1.52,6.66,2.28,10.86,2.28,3.91,0,7.27-.56,10.06-1.69,2.43-.98,4.83-2.42,7.22-4.33,.61-.49,1.49-.45,2.03,.12l12.73,13.24c.57,.59,.55,1.53-.03,2.11-3.62,3.68-7.98,6.53-13.07,8.54-5.58,2.2-12.19,3.3-19.82,3.3Z"/>
    <path class="cls-1" d="M380.41,599.68c-6.75,0-13.34-.78-19.75-2.35-5.79-1.41-10.57-3.15-14.32-5.2-.67-.37-.94-1.2-.63-1.9l7.17-16.35c.35-.8,1.32-1.11,2.09-.68,3.39,1.87,7.27,3.38,11.64,4.54,4.99,1.32,9.88,1.98,14.68,1.98s7.95-.49,9.76-1.47c1.81-.98,2.72-2.3,2.72-3.96,0-1.56-.86-2.72-2.57-3.45-1.71-.73-3.96-1.3-6.75-1.69-2.79-.39-5.85-.83-9.18-1.32-3.33-.49-6.68-1.15-10.06-1.98-3.38-.83-6.46-2.1-9.25-3.82-2.79-1.71-5.02-4.04-6.68-6.97-1.67-2.94-2.5-6.66-2.5-11.16,0-5.09,1.49-9.62,4.48-13.58,2.98-3.96,7.36-7.1,13.14-9.4,5.77-2.3,12.82-3.45,21.14-3.45,5.58,0,11.23,.56,16.96,1.69,5.15,1.01,9.57,2.48,13.25,4.4,.69,.36,.97,1.21,.65,1.93l-7.15,16.18c-.36,.81-1.32,1.12-2.1,.71-3.44-1.82-6.88-3.1-10.31-3.83-3.92-.83-7.63-1.25-11.16-1.25-4.7,0-8,.54-9.91,1.62-1.91,1.08-2.86,2.4-2.86,3.96s.83,2.77,2.5,3.6c1.66,.83,3.89,1.47,6.68,1.91,2.79,.44,5.85,.88,9.18,1.32,3.33,.44,6.68,1.1,10.06,1.98s6.46,2.18,9.25,3.89c2.79,1.71,5.01,4.01,6.68,6.9,1.66,2.89,2.5,6.58,2.5,11.09,0,4.9-1.49,9.3-4.48,13.21-2.99,3.92-7.39,7.05-13.21,9.4-5.82,2.35-13.04,3.52-21.66,3.52Z"/>
    <path class="cls-1" d="M422.69,541.07v-17.85c0-.83,.67-1.5,1.5-1.5h54.7c.83,0,1.5,.67,1.5,1.5v17.85c0,.83-.67,1.5-1.5,1.5h-54.7c-.83,0-1.5-.67-1.5-1.5Zm43.9,58.61c-10.18,0-18.11-2.52-23.79-7.56-5.68-5.04-8.52-12.65-8.52-22.83v-66.77c0-.83,.67-1.5,1.5-1.5h24.9c.83,0,1.5,.67,1.5,1.5v66.48c0,2.84,.78,5.07,2.35,6.68,1.56,1.61,3.57,2.42,6.02,2.42,2.64,0,4.97-.52,6.99-1.57,.82-.43,1.83-.06,2.14,.81l5.88,16.65c.24,.69-.05,1.45-.68,1.82-2.14,1.23-4.66,2.15-7.57,2.78-3.43,.73-7,1.1-10.72,1.1Z"/>
    <path class="cls-1" d="M509.9,509.98c-5.09,0-9.2-1.42-12.33-4.26-3.13-2.84-4.7-6.36-4.7-10.57s1.56-7.73,4.7-10.57c3.13-2.84,7.24-4.26,12.33-4.26s9.2,1.35,12.33,4.04c3.13,2.69,4.7,6.14,4.7,10.35s-1.54,8.05-4.62,10.94c-3.08,2.89-7.22,4.33-12.41,4.33Zm-13.95,86.89v-76.58c0-.83,.67-1.5,1.5-1.5h24.9c.83,0,1.5,.67,1.5,1.5v76.58c0,.83-.67,1.5-1.5,1.5h-24.9c-.83,0-1.5-.67-1.5-1.5Z"/>
    <path class="cls-1" d="M581.84,599.68c-8.81,0-16.66-1.76-23.57-5.29-6.9-3.52-12.31-8.39-16.22-14.61-3.92-6.21-5.87-13.33-5.87-21.36s1.96-15.12,5.87-21.29c3.91-6.17,9.32-10.99,16.22-14.46,6.9-3.47,14.76-5.21,23.57-5.21s16.79,1.91,23.34,5.73c6.15,3.58,10.62,8.53,13.41,14.86,.32,.72,0,1.56-.7,1.92l-19.03,9.71c-.71,.36-1.59,.11-1.98-.58-1.74-3.08-3.81-5.38-6.24-6.9-2.74-1.71-5.73-2.57-8.96-2.57s-6.17,.73-8.81,2.2c-2.64,1.47-4.72,3.6-6.24,6.39-1.52,2.79-2.28,6.19-2.28,10.2s.76,7.59,2.28,10.42c1.52,2.84,3.6,4.99,6.24,6.46,2.64,1.47,5.58,2.2,8.81,2.2s6.21-.86,8.96-2.57c2.42-1.51,4.5-3.81,6.24-6.89,.39-.69,1.27-.95,1.98-.58l19.03,9.71c.7,.36,1.02,1.2,.7,1.92-2.79,6.33-7.26,11.28-13.41,14.86-6.56,3.82-14.34,5.73-23.34,5.73Z"/>
    <path class="cls-1" d="M668.03,599.68c-8.71,0-16.44-1.76-23.2-5.29-6.75-3.52-12.06-8.39-15.93-14.61-3.87-6.21-5.8-13.33-5.8-21.36s1.93-15.12,5.8-21.29c3.87-6.17,9.18-10.99,15.93-14.46,6.75-3.47,14.49-5.21,23.2-5.21s16.47,1.74,23.27,5.21c6.8,3.48,12.11,8.29,15.93,14.46,3.82,6.17,5.73,13.26,5.73,21.29s-1.91,15.15-5.73,21.36c-3.82,6.22-9.13,11.08-15.93,14.61-6.8,3.52-14.56,5.29-23.27,5.29Zm0-22.17c3.23,0,6.09-.73,8.59-2.2,2.5-1.47,4.48-3.65,5.95-6.53,1.47-2.89,2.2-6.34,2.2-10.35s-.73-7.41-2.2-10.2c-1.47-2.79-3.45-4.92-5.95-6.39-2.5-1.47-5.36-2.2-8.59-2.2s-5.95,.73-8.44,2.2c-2.5,1.47-4.5,3.6-6.02,6.39-1.52,2.79-2.28,6.19-2.28,10.2s.76,7.46,2.28,10.35c1.52,2.89,3.52,5.07,6.02,6.53,2.5,1.47,5.31,2.2,8.44,2.2Z"/>
    <path class="cls-2" d="M726.46,596.86v-99.78c0-.83,.67-1.5,1.5-1.5h45.48c9.4,0,17.49,1.52,24.3,4.55,6.8,3.04,12.06,7.41,15.78,13.14,3.72,5.73,5.58,12.5,5.58,20.33s-1.86,14.44-5.58,20.11c-3.72,5.68-8.98,10.06-15.78,13.14-6.8,3.08-14.9,4.62-24.3,4.62h-27.15c-1.34,0-2.01-1.63-1.05-2.57l7.74-7.56c.95-.93,2.55-.26,2.55,1.07v34.43c0,.83-.67,1.5-1.5,1.5h-26.07c-.83,0-1.5-.67-1.5-1.5Zm26.49-37.58l-7.88-8.15c-.92-.95-.25-2.54,1.08-2.54h25.53c6.07,0,10.59-1.32,13.58-3.96,2.98-2.64,4.48-6.31,4.48-11.01s-1.49-8.52-4.48-11.16c-2.99-2.64-7.51-3.96-13.58-3.96h-25.53c-1.32,0-2-1.59-1.08-2.54l7.88-8.15c.94-.97,2.58-.31,2.58,1.04v49.4c0,1.35-1.64,2.01-2.58,1.04Z"/>
    <path class="cls-2" d="M872.7,599.68c-9.4,0-17.6-1.79-24.59-5.36-7-3.57-12.43-8.46-16.3-14.68-3.87-6.21-5.8-13.29-5.8-21.22s1.88-15,5.65-21.22c3.77-6.21,8.98-11.06,15.64-14.54,6.66-3.47,14.14-5.21,22.46-5.21,7.83,0,14.98,1.59,21.44,4.77,6.46,3.18,11.6,7.85,15.42,14.02,3.82,6.17,5.73,13.65,5.73,22.46,0,.98-.05,2.11-.15,3.38-.06,.75-.12,1.47-.17,2.15-.07,.78-.71,1.37-1.49,1.37h-60.11c-.83,0-1.5-.67-1.5-1.5v-11.68c0-.83,.67-1.5,1.5-1.5h38.66c1.66,0,2.09,2.3,.54,2.9l-1.12,.43c-.96,.37-1.98-.31-2.04-1.33-.17-2.74-.81-5.17-1.95-7.28-1.42-2.64-3.38-4.7-5.87-6.17-2.5-1.47-5.41-2.2-8.74-2.2s-6.24,.73-8.74,2.2c-2.5,1.47-4.43,3.55-5.8,6.24-1.37,2.69-2.05,5.85-2.05,9.47v4.26c0,3.92,.81,7.29,2.42,10.13,1.62,2.84,3.94,5.02,6.97,6.53,3.03,1.52,6.66,2.28,10.86,2.28,3.91,0,7.27-.56,10.06-1.69,2.43-.98,4.83-2.42,7.22-4.33,.61-.49,1.49-.45,2.03,.12l12.73,13.24c.57,.59,.55,1.53-.03,2.11-3.62,3.68-7.98,6.53-13.07,8.54-5.58,2.2-12.19,3.3-19.82,3.3Z"/>
  </g>
  <path class="cls-2" d="M938,551.46c-4.39-18.07-5.44-36.74-5.56-55.25,0,0,1.73,4.17,1.73,4.17,0,0,4.17,1.73,4.16,1.72-18.52-.15-37.18-1.2-55.25-5.56,0,0,0-.65,0-.65,6.9-.1,20.73-.21,27.63-.22,0,0,27.63-.11,27.63-.11h.27s.19,.19,.19,.19c0,0,.19,.19,.19,.19,0,0,0,.27,0,.27-.04,9.13-.13,32.61-.17,41.44,0,0-.16,13.81-.16,13.81,0,0-.65,0-.65,0h0Z"/>
</svg>