<?xml version="1.0" encoding="iso-8859-1"?>
<!-- Uploaded to: SVG Repo, www.svgrepo.com, Generator: SVG Repo Mixer Tools -->
<svg fill="#000000" height="800px" width="800px" version="1.1" id="Layer_1" xmlns="http://www.w3.org/2000/svg" xmlns:xlink="http://www.w3.org/1999/xlink" 
	 viewBox="0 0 512 512" xml:space="preserve">
<g>
	<g>
		<path d="M350.603,185.906c-20.875-28.437-42.7-57.167-68.948-79.462C248.032,77.883,211.728,64,170.668,64H0v36.571h24.381v85.335
			H350.603z M213.333,143.239c0-10.099,8.187-18.286,18.286-18.286c10.099,0,18.286,8.187,18.286,18.286v24.381h-36.571V143.239z
			 M140.19,143.239c0-10.099,8.187-18.286,18.286-18.286s18.286,8.187,18.286,18.286v24.381H140.19V143.239z M67.048,143.239
			c0-10.099,8.187-18.286,18.286-18.286c10.099,0,18.286,8.187,18.286,18.286v24.381H67.048V143.239z"/>
	</g>
</g>
<g>
	<g>
		<path d="M401.011,301.937c-26.246-22.295-48.072-51.023-68.946-79.46H24.381v85.333h383.861
			C405.818,305.925,403.407,303.973,401.011,301.937z M103.619,289.525H67.048v-24.381c0-10.099,8.187-18.286,18.286-18.286
			c10.099,0,18.286,8.187,18.286,18.286V289.525z M176.762,289.525H140.19v-24.381c0-10.099,8.187-18.286,18.286-18.286
			s18.286,8.187,18.286,18.286V289.525z M249.905,289.525h-36.571v-24.381c0-10.099,8.187-18.286,18.286-18.286
			c10.099,0,18.286,8.187,18.286,18.286V289.525z M323.048,289.525h-36.571v-24.381c0-10.099,8.187-18.286,18.286-18.286
			s18.286,8.187,18.286,18.286V289.525z"/>
	</g>
</g>
<g>
	<g>
		<path d="M364.01,204.192C404.269,258.854,444.26,307.81,512,307.81V204.192H364.01z"/>
	</g>
</g>
<g>
	<g>
		<path d="M24.381,344.381V448H512V344.381H24.381z M103.619,411.429H67.048v-24.381c0-10.099,8.187-18.286,18.286-18.286
			c10.099,0,18.286,8.187,18.286,18.286V411.429z M176.762,411.429H140.19v-24.381c0-10.099,8.187-18.286,18.286-18.286
			s18.286,8.187,18.286,18.286V411.429z M249.905,411.429h-36.571v-24.381c0-10.099,8.187-18.286,18.286-18.286
			c10.099,0,18.286,8.187,18.286,18.286V411.429z M323.048,411.429h-36.571v-24.381c0-10.099,8.187-18.286,18.286-18.286
			s18.286,8.187,18.286,18.286V411.429z M396.19,411.429h-36.571v-24.381c0-10.099,8.187-18.286,18.286-18.286
			s18.286,8.187,18.286,18.286V411.429z M469.333,411.429h-36.571v-24.381c0-10.099,8.187-18.286,18.286-18.286
			c10.099,0,18.286,8.187,18.286,18.286V411.429z"/>
	</g>
</g>
</svg>