<?xml version="1.0" encoding="iso-8859-1"?>
<!-- Uploaded to: SVG Repo, www.svgrepo.com, Generator: SVG Repo Mixer Tools -->
<svg fill="#000000" height="800px" width="800px" version="1.1" id="Capa_1" xmlns="http://www.w3.org/2000/svg" xmlns:xlink="http://www.w3.org/1999/xlink" 
	 viewBox="0 0 480.003 480.003" xml:space="preserve">
<path d="M479.567,212.397c-0.941-2.732-3.282-4.745-6.125-5.265c-43.199-7.899-74.211-27.933-92.62-43.348
	c-16.017-13.412-25.566-25.765-28.821-30.285v-13.498c0-4.418-3.582-8-8-8s-8,3.582-8,8v8h-192v-8c0-4.418-3.582-8-8-8s-8,3.582-8,8
	v13.498c-3.262,4.531-12.81,16.879-28.82,30.285c-18.409,15.415-49.42,35.448-92.62,43.348c-2.843,0.52-5.184,2.532-6.125,5.265
	s-0.335,5.76,1.584,7.919c1.063,1.196,10.937,11.686,29.979,11.686h24.001v12.611c-6.463,6.008-26.245,22.777-49.274,26.492
	c-3.876,0.625-6.726,3.971-6.726,7.897v1c0,2.122,0.843,4.156,2.343,5.657c0.896,0.896,8.096,7.663,21.657,9.729v56.614
	c-4.418,0-8,3.582-8,8s3.582,8,8,8h424c4.418,0,8-3.582,8-8s-3.582-8-8-8v-58.532c8.405-2.831,12.957-7.111,13.657-7.811
	c1.5-1.501,2.343-3.535,2.343-5.657v-1c0-3.927-2.85-7.272-6.726-7.897c-22.924-3.698-42.792-20.499-49.274-26.501v-12.601h40.001
	c19.043,0,28.916-10.489,29.979-11.686C479.902,218.157,480.507,215.129,479.567,212.397z M232.001,232.001v8h-160v-8H232.001z
	 M40.001,296.001h32v56h-32V296.001z M120.001,296.001v56h-32v-56H120.001z M168.001,296.001v56h-32v-56H168.001z M288.001,296.001
	v56h-104v-56H288.001z M336.001,296.001v56h-32v-56H336.001z M384.001,296.001v56h-32v-56H384.001z M432.001,352.001h-32v-56h32
	V352.001z M432.001,280.001h-400c-0.104,0-0.208,0-0.31-0.001c17.164-7.71,30.28-19.03,35.566-23.999h329.488
	c5.286,4.969,18.402,16.289,35.566,23.999C432.209,280.001,432.105,280.001,432.001,280.001z M392.001,240.001h-144v-8h144V240.001z
	 M36.861,216.001c32.845-10.539,57.278-27.043,73.107-40.383c15.89-13.391,25.821-25.698,30.186-31.617h199.694
	c4.364,5.919,14.296,18.227,30.186,31.617c15.829,13.34,40.263,29.844,73.107,40.383H36.861z"/>
</svg>