<?xml version="1.0" encoding="iso-8859-1"?>
<!-- Uploaded to: SVG Repo, www.svgrepo.com, Generator: SVG Repo Mixer Tools -->
<svg fill="#000000" height="800px" width="800px" version="1.1" id="Layer_1" xmlns="http://www.w3.org/2000/svg" xmlns:xlink="http://www.w3.org/1999/xlink" 
	 viewBox="0 0 502.4 502.4" xml:space="preserve">
<g>
	<g>
		<path d="M25.6,390.4c-11.733,0-21.333,9.6-21.333,21.333v69.333c0,11.733,9.6,21.333,21.333,21.333s21.333-9.6,21.333-21.333
			v-69.333C46.933,400,37.333,390.4,25.6,390.4z"/>
	</g>
</g>
<g>
	<g>
		<path d="M87.466,390.4c-11.733,0-21.333,9.6-21.333,21.333v69.333c0,11.733,9.6,21.333,21.333,21.333s21.333-9.6,21.333-21.333
			v-69.333C108.8,400,99.2,390.4,87.466,390.4z"/>
	</g>
</g>
<g>
	<g>
		<path d="M149.333,390.4C137.6,390.4,128,400,128,411.733v69.333c0,11.733,9.6,21.333,21.333,21.333s21.333-9.6,21.333-21.333
			v-69.333C170.666,400,161.066,390.4,149.333,390.4z"/>
	</g>
</g>
<g>
	<g>
		<path d="M481.066,98.133H363.733V42.667h28.8c11.733,0,21.333-9.6,21.333-21.333S404.267,0,392.533,0H292.267
			c-11.733,0-21.333,9.6-21.333,21.333s9.6,21.333,21.333,21.333h28.8v55.467H92.8C41.6,98.133,0,138.667,0,188.8v162.133
			c0,11.733,9.6,21.333,21.333,21.333h142.933c11.733,0,21.333-8.533,21.333-20.267v-71.467h295.467
			c11.733,0,21.333-9.6,21.333-21.333V119.467C502.4,107.733,492.8,98.133,481.066,98.133z M165.333,237.867
			c-11.733,0-21.333,9.6-21.333,21.333v71.467H41.6V188.8c0-26.667,23.467-49.067,51.2-49.067h368v98.133H165.333z"/>
	</g>
</g>
</svg>