<?xml version="1.0" encoding="iso-8859-1"?>
<!-- Uploaded to: SVG Repo, www.svgrepo.com, Generator: SVG Repo Mixer Tools -->
<svg fill="#000000" height="800px" width="800px" version="1.1" id="Layer_1" xmlns="http://www.w3.org/2000/svg" xmlns:xlink="http://www.w3.org/1999/xlink" 
	 viewBox="0 0 512 512" xml:space="preserve">
<g>
	<g>
		<g>
			<path d="M457.541,66.252L384,29.482v-8.149C384,9.551,374.449,0,362.667,0H64C52.218,0,42.667,9.551,42.667,21.333v469.333
				C42.667,502.449,52.218,512,64,512h298.667c11.782,0,21.333-9.551,21.333-21.333v-8.149l73.541-36.77
				c7.227-3.614,11.793-11.001,11.793-19.081V85.333C469.333,77.253,464.768,69.866,457.541,66.252z M234.667,149.333h106.667V384
				H234.667V149.333z M341.333,106.667H234.667v-64h106.667V106.667z M85.333,42.667H192v426.667H85.333V42.667z M234.667,469.333
				v-42.667h106.667v42.667H234.667z M426.667,413.482L384,434.815V77.185l42.667,21.333V413.482z"/>
			<path d="M149.333,213.333c-11.782,0-21.333,9.551-21.333,21.333v64c0,11.782,9.551,21.333,21.333,21.333
				c11.782,0,21.333-9.551,21.333-21.333v-64C170.667,222.885,161.115,213.333,149.333,213.333z"/>
		</g>
	</g>
</g>
</svg>