<?xml version="1.0" encoding="iso-8859-1"?>
<!-- Uploaded to: SVG Repo, www.svgrepo.com, Generator: SVG Repo Mixer Tools -->
<svg fill="#000000" height="800px" width="800px" version="1.1" id="Layer_1" xmlns="http://www.w3.org/2000/svg" xmlns:xlink="http://www.w3.org/1999/xlink" 
	 viewBox="0 0 512 512" xml:space="preserve">
<g>
	<g>
		<path d="M509.748,214.459l-10.667-21.333l-32-64c-3.614-7.227-11.001-11.793-19.081-11.793H320
			c-11.782,0-21.333,9.551-21.333,21.333v128h-34.358l31.174-192H320c11.782,0,21.333-9.551,21.333-21.333
			C341.333,41.551,331.782,32,320,32h-42.667H256h-21.333c-5.658,0-11.084,2.248-15.085,6.248l-36.418,36.418H48.768
			c-8.533,0-16.246,5.085-19.608,12.928l-27.435,64c-1.575,3.675-2.086,7.718-1.474,11.669l16.104,104.01
			C6.979,269.52,0,277.935,0,288v106.667C0,406.449,9.551,416,21.333,416h21.333c0,35.355,28.645,64,64,64s64-28.645,64-64h170.667
			c0,35.355,28.645,64,64,64c35.355,0,64-28.645,64-64h21.333c11.782,0,21.333-9.551,21.333-21.333V288v-64
			C512,220.688,511.229,217.422,509.748,214.459z M469.333,229.036v37.631h-42.667V224h40.149L469.333,229.036z M62.834,117.333H192
			c5.658,0,11.084-2.248,15.085-6.248l36.418-36.418h8.754l-31.174,192H59.436L43.352,162.782L62.834,117.333z M106.667,437.333
			c-11.791,0-21.333-9.542-21.333-21.333c0-3.283,0.761-6.379,2.083-9.156c0.322-0.464,0.634-0.937,0.921-1.43
			c2.909-4.987,7.496-8.534,12.799-9.999c0.023-0.006,0.047-0.012,0.07-0.018c0.578-0.157,1.166-0.282,1.759-0.389
			c0.4-0.07,0.8-0.137,1.207-0.184c0.206-0.025,0.413-0.044,0.62-0.063c0.618-0.054,1.241-0.094,1.873-0.094
			s1.255,0.041,1.873,0.094c0.207,0.019,0.414,0.038,0.62,0.063c0.407,0.047,0.808,0.114,1.207,0.184
			c0.593,0.107,1.181,0.232,1.759,0.389c0.023,0.006,0.047,0.012,0.07,0.018c5.303,1.465,9.891,5.012,12.799,9.999
			c0.287,0.493,0.598,0.966,0.921,1.43c1.322,2.777,2.084,5.873,2.084,9.156C128,427.791,118.458,437.333,106.667,437.333z
			 M405.333,437.333C393.542,437.333,384,427.791,384,416c0-3.283,0.762-6.379,2.084-9.156c0.322-0.464,0.633-0.937,0.921-1.43
			c2.909-4.987,7.496-8.534,12.799-9.999c0.023-0.006,0.047-0.012,0.07-0.018c0.578-0.157,1.166-0.282,1.759-0.389
			c0.4-0.07,0.8-0.137,1.207-0.184c0.206-0.025,0.413-0.044,0.62-0.063c0.618-0.054,1.241-0.094,1.873-0.094
			s1.255,0.041,1.873,0.094c0.207,0.019,0.414,0.038,0.62,0.063c0.407,0.047,0.808,0.114,1.207,0.184
			c0.593,0.107,1.181,0.232,1.759,0.389c0.023,0.006,0.047,0.012,0.07,0.018c5.303,1.465,9.891,5.012,12.799,9.999
			c0.287,0.493,0.598,0.966,0.921,1.43c1.322,2.777,2.084,5.873,2.084,9.156C426.667,427.791,417.125,437.333,405.333,437.333z
			 M453.03,373.333c-10.25-11.451-24.559-19.184-40.673-20.942c-0.061-0.007-0.122-0.017-0.183-0.023
			c-0.977-0.104-1.962-0.18-2.952-0.239c-0.161-0.01-0.319-0.028-0.48-0.036c-1.129-0.059-2.265-0.092-3.409-0.092
			s-2.28,0.033-3.409,0.092c-0.161,0.009-0.319,0.027-0.48,0.036c-0.99,0.059-1.975,0.136-2.952,0.239
			c-0.061,0.007-0.121,0.016-0.182,0.023c-16.114,1.758-30.424,9.491-40.674,20.942H154.364
			c-10.25-11.451-24.559-19.184-40.674-20.942c-0.061-0.007-0.121-0.017-0.182-0.023c-0.977-0.104-1.962-0.18-2.952-0.239
			c-0.16-0.01-0.319-0.028-0.48-0.036c-1.129-0.059-2.265-0.092-3.409-0.092s-2.28,0.033-3.409,0.092
			c-0.161,0.009-0.319,0.027-0.48,0.036c-0.99,0.059-1.975,0.136-2.952,0.239c-0.061,0.007-0.121,0.016-0.182,0.023
			c-16.114,1.758-30.424,9.491-40.674,20.942H42.667v-64h196.565H320c11.782,0,21.333-9.551,21.333-21.333V160h93.482l10.667,21.333
			h-40.149c-11.782,0-21.333,9.551-21.333,21.333V288c0,11.782,9.551,21.333,21.333,21.333h64v64H453.03z"/>
	</g>
</g>
</svg>