<?xml version="1.0" ?>
<!-- Uploaded to: SVG Repo, www.svgrepo.com, Generator: SVG Repo Mixer Tools -->
<svg width="800px" height="800px" viewBox="0 0 80 80" enable-background="new 0 0 80 80" id="Layer_1" version="1.1" xml:space="preserve" xmlns="http://www.w3.org/2000/svg" xmlns:xlink="http://www.w3.org/1999/xlink">
<g>
<g>
<path d="M63,44v-8    c0-2.209,1.791-4,4-4h0c2.209,0,4,1.791,4,4v8c0,2.209-1.791,4-4,4h0C64.791,48,63,46.209,63,44z" fill="none" stroke="#000000" stroke-linecap="round" stroke-miterlimit="10" stroke-width="4"/>
<path d="M17,36v8    c0,2.209-1.791,4-4,4h0c-2.209,0-4-1.791-4-4v-8c0-2.209,1.791-4,4-4h0C15.209,32,17,33.791,17,36z" fill="none" stroke="#000000" stroke-linecap="round" stroke-miterlimit="10" stroke-width="4"/>
<polygon fill="none" points="17,37 17,38     17,38 17,42 17,42 17,43 63,43 63,37   " stroke="#000000" stroke-linecap="round" stroke-miterlimit="10" stroke-width="4"/>
</g>
<g>
<path d="    M30,37V12.219c0-1.251,0.776-2.379,1.948-2.817c4.906-1.833,9.813,3.23,14.719,2.583C48.449,11.751,50,13.237,50,15.035V37" fill="none" stroke="#000000" stroke-linecap="round" stroke-linejoin="round" stroke-miterlimit="10" stroke-width="4"/>
<path d="    M30,43.01v21.963c0,1.798,1.551,3.285,3.333,3.05c4.906-0.646,9.813,4.416,14.719,2.583C49.224,70.168,50,69.04,50,67.789V43.01" fill="none" stroke="#000000" stroke-linecap="round" stroke-linejoin="round" stroke-miterlimit="10" stroke-width="4"/>
</g>
<circle cx="37" cy="17" r="2"/>
<circle cx="37" cy="26" r="2"/>
<circle cx="43" cy="31" r="2"/>
<circle cx="43" cy="22" r="2"/>
</g>
</svg>