<?xml version="1.0" encoding="iso-8859-1"?>
<!-- Uploaded to: SVG Repo, www.svgrepo.com, Generator: SVG Repo Mixer Tools -->
<svg version="1.1" id="Layer_1" xmlns="http://www.w3.org/2000/svg" xmlns:xlink="http://www.w3.org/1999/xlink" 
	 viewBox="0 0 392.598 392.598" xml:space="preserve">
<g>
	<path style="fill:#FFFFFF;" d="M260.482,21.786H132.934c-6.982,66.004-40.469,116.752-88.954,159.03h306.23
		C282.849,121.147,264.878,48.226,260.482,21.786z"/>
	<rect x="88.651" y="350.836" style="fill:#FFFFFF;" width="215.273" height="19.846"/>
</g>
<path style="fill:#FFC10D;" d="M131.124,202.667c-6.335,15.968-9.632,34.004-9.632,52.364c0,27.798,7.37,53.851,20.881,73.956
	h107.96c13.446-20.105,20.881-46.158,20.881-73.956c0-18.489-3.297-36.396-9.632-52.364H131.124z"/>
<path style="fill:#56ACE0;" d="M242.898,43.572h-91.152c-1.939,9.956-4.848,21.786-9.374,34.715H176.7
	c6.012,0,10.925,4.848,10.925,10.925c0,6.012-4.848,10.925-10.925,10.925h-41.309c-0.517,0-1.099-0.065-1.616-0.129
	c-3.103,6.723-6.594,13.705-10.537,20.687h27.345c6.012,0,10.925,4.848,10.925,10.925c0,6.012-4.848,10.925-10.925,10.925h-41.18
	c-3.879,5.56-8.145,11.055-12.671,16.614h203.055C265.459,115.911,249.815,71.758,242.898,43.572z"/>
<g>
	<path style="fill:#194F82;" d="M234.946,224.776c-5.947,1.034-9.956,6.659-8.857,12.606c1.034,5.818,1.487,11.83,1.487,17.842
		c0,13.188-2.392,26.053-6.853,37.172c-2.263,5.56,0.388,11.96,6.012,14.222c6.335,2.327,11.96-0.453,14.222-6.012
		c5.56-13.705,8.469-29.35,8.469-45.382c0-7.24-0.646-14.545-1.745-21.527C246.518,227.685,240.894,223.806,234.946,224.776z"/>
	<path style="fill:#194F82;" d="M387.9,182.82C291.124,114.618,280.974,10.99,280.845,9.956C280.393,4.331,275.673,0,270.049,0
		H122.591c-6.012,0-10.99,4.655-10.925,11.119c0,1.034,0.776,100.784-106.731,171.572c-8.404,5.495-5.689,19.782,6.012,20.04h97.034
		c-5.43,16.356-8.275,34.263-8.275,52.364c0,26.958,6.271,52.493,17.519,73.956H77.726c-6.012,0-10.925,4.849-10.925,10.925v41.697
		c0,6.012,4.848,10.925,10.925,10.925h237.059c6.012,0,10.925-4.848,10.925-10.925v-41.697c0-6.012-4.848-10.925-10.925-10.925
		h-39.499c11.313-21.463,17.455-46.998,17.455-73.956c0-18.166-2.844-36.008-8.275-52.364h37.883v29.285
		c0,6.012,4.848,10.925,10.925,10.925s10.925-4.848,10.925-10.925v-29.285h37.495C392.554,202.149,396.433,188.509,387.9,182.82z
		 M303.924,350.836v19.846H88.651v-19.846H303.924z M121.492,255.095c0-18.489,3.297-36.396,9.632-52.364h130.327
		c6.335,15.968,9.632,34.004,9.632,52.364c0,27.798-7.37,53.85-20.881,73.956h-107.96
		C128.797,308.945,121.492,282.893,121.492,255.095z M43.981,180.816c48.549-42.279,81.972-93.026,88.954-159.03h127.483
		c4.461,26.44,22.432,99.362,89.859,159.03H43.981z"/>
</g>
</svg>